<svg xmlns="http://www.w3.org/2000/svg" width="203" height="51" viewBox="0 0 203 51"><path fill="#000" d="M52.14 49v-7h.61l3.2 5.46h-.32L58.8 42h.61v7h-.71v-5.89h.17l-2.92 5h-.35l-2.94-5h.19V49h-.71Zm8.43 0 3.2-7h.73l3.2 7h-.78l-2.94-6.57h.3L61.34 49h-.77Zm1.26-1.87.22-.6h4.07l.22.6h-4.51ZM68.86 49v-7h.61l4.83 6.08h-.32V42h.73v7h-.61l-4.82-6.08h.32V49h-.74Zm7.015 0 3.2-7h.73l3.2 7h-.78l-2.94-6.57h.3L76.644 49h-.77Zm1.26-1.87.22-.6h4.07l.22.6h-4.51Zm10 1.93a4.111 4.111 0 0 1-1.48-.26 3.63 3.63 0 0 1-1.17-.75 3.507 3.507 0 0 1-.77-1.13 3.666 3.666 0 0 1-.27-1.42c0-.513.09-.987.27-1.42.186-.433.447-.81.78-1.13.333-.32.723-.567 1.17-.74.453-.18.947-.27 1.48-.27s1.02.083 1.46.25c.447.167.826.42 1.14.76l-.46.47a2.616 2.616 0 0 0-.97-.63 3.352 3.352 0 0 0-1.14-.19c-.434 0-.834.073-1.2.22-.36.14-.677.343-.95.61-.267.26-.477.567-.63.92-.147.347-.22.73-.22 1.15 0 .413.073.797.22 1.15.153.353.363.663.63.93.273.26.59.463.95.61.367.14.763.21 1.19.21.4 0 .776-.06 1.13-.18.36-.12.69-.323.99-.61l.42.56a3.44 3.44 0 0 1-1.17.67c-.447.147-.913.22-1.4.22Zm1.86-.98V45.5h.71v2.67l-.71-.09Zm3.464-2.95h3.7v.63h-3.7v-.63Zm.08 3.23h4.21V49h-4.95v-7h4.8v.64h-4.06v5.72Zm5.95.64v-7h.61l3.2 5.46h-.32l3.17-5.46h.61v7h-.71v-5.89h.17l-2.92 5h-.35l-2.94-5h.19V49h-.71Zm10.21-3.87h3.7v.63h-3.7v-.63Zm.08 3.23h4.21V49h-4.95v-7h4.8v.64h-4.06v5.72Zm5.95.64v-7h.61l4.83 6.08h-.32V42h.73v7h-.61l-4.82-6.08h.32V49h-.74Zm9.495 0v-6.36h-2.46V42h5.66v.64h-2.46V49h-.74Zm5.879 0 3.2-7h.73l3.2 7h-.78l-2.94-6.57h.3l-2.94 6.57h-.77Zm1.26-1.87.22-.6h4.07l.22.6h-4.51ZM138.39 49v-7h2.62c.593 0 1.103.097 1.53.29.427.187.753.46.98.82.233.353.35.783.35 1.29 0 .493-.117.92-.35 1.28a2.213 2.213 0 0 1-.98.82c-.427.193-.937.29-1.53.29h-2.21l.33-.35V49h-.74Zm.74-2.5-.33-.36h2.19c.7 0 1.23-.15 1.59-.45.367-.307.55-.737.55-1.29 0-.56-.183-.993-.55-1.3-.36-.307-.89-.46-1.59-.46h-2.19l.33-.35v4.21Zm6.34 2.5v-7h2.62c.593 0 1.103.097 1.53.29.427.187.753.46.98.82.233.353.35.783.35 1.29 0 .493-.117.92-.35 1.28a2.213 2.213 0 0 1-.98.82c-.427.193-.937.29-1.53.29h-2.21l.33-.35V49h-.74Zm.74-2.5-.33-.36h2.19c.7 0 1.23-.15 1.59-.45.367-.307.55-.737.55-1.29 0-.56-.183-.993-.55-1.3-.36-.307-.89-.46-1.59-.46h-2.19l.33-.35v4.21ZM44.008 31V8.6h3.424l9.792 16.352h-1.792L65.064 8.6h3.424L68.52 31h-3.936l-.032-16.224h.832L57.192 28.44h-1.856l-8.32-13.664h.96V31h-3.968Zm30.562 0V8.6h9.217c1.983 0 3.68.32 5.087.96 1.43.64 2.529 1.557 3.297 2.752.767 1.195 1.151 2.613 1.151 4.256 0 1.643-.383 3.061-1.151 4.256-.769 1.195-1.867 2.112-3.297 2.752-1.407.64-3.103.96-5.087.96h-6.913l1.857-1.952V31h-4.16Zm4.16-7.968-1.856-2.016h6.72c1.835 0 3.211-.384 4.129-1.152.938-.79 1.407-1.888 1.407-3.296 0-1.43-.469-2.528-1.407-3.296-.918-.768-2.294-1.152-4.129-1.152h-6.72l1.857-2.048v12.96ZM97.478 31V8.6h4.16v18.88h11.712V31H97.477Zm29.246.32c-1.75 0-3.36-.288-4.832-.864-1.472-.576-2.752-1.376-3.84-2.4a11.092 11.092 0 0 1-2.528-3.648c-.598-1.408-.896-2.944-.896-4.608 0-1.664.298-3.19.896-4.576a10.668 10.668 0 0 1 2.528-3.648 11.552 11.552 0 0 1 3.84-2.432c1.472-.576 3.072-.864 4.8-.864 1.749 0 3.349.288 4.8.864a11.552 11.552 0 0 1 3.84 2.432 10.682 10.682 0 0 1 2.528 3.648c.597 1.387.896 2.912.896 4.576 0 1.664-.299 3.2-.896 4.608a10.682 10.682 0 0 1-2.528 3.648c-1.088 1.024-2.368 1.824-3.84 2.4-1.451.576-3.04.864-4.768.864Zm-.032-3.648c1.13 0 2.176-.192 3.136-.576a7.343 7.343 0 0 0 2.496-1.632 7.78 7.78 0 0 0 1.632-2.496c.405-.96.608-2.016.608-3.168 0-1.152-.203-2.197-.608-3.136a7.343 7.343 0 0 0-1.632-2.496 7.121 7.121 0 0 0-2.496-1.664c-.96-.384-2.006-.576-3.136-.576-1.131 0-2.176.192-3.136.576a7.525 7.525 0 0 0-2.496 1.664 7.748 7.748 0 0 0-1.664 2.496c-.384.939-.576 1.984-.576 3.136 0 1.13.192 2.176.576 3.136.405.96.96 1.803 1.664 2.528a7.343 7.343 0 0 0 2.496 1.632c.96.384 2.005.576 3.136.576ZM147.7 31v-8.864l.928 2.56L138.899 8.6h4.449l7.808 12.96h-2.496l7.872-12.96h4.096L150.9 24.696l.96-2.56V31h-4.16Zm19.211-13.088h11.136v3.424h-11.136v-3.424Zm.32 9.6h12.64V31h-16.8V8.6h16.352v3.488h-12.192v15.424Zm21.117-9.6h11.136v3.424h-11.136v-3.424Zm.32 9.6h12.64V31h-16.8V8.6h16.352v3.488h-12.192v15.424Z"/><path fill="#1352A1" d="M6 2h33l-2 8H4l2-8Z"/><path fill="#BBD5F7" d="M4 15h33l-2 8H2l2-8Z"/><path fill="#1352A1" d="M2 28h33l-2 8H0l2-8Z"/></svg>
