<svg xmlns="http://www.w3.org/2000/svg" width="201" height="19" viewBox="0 0 201 19" fill="none">
<path d="M13.6336 0.726562V2.64844H8.47734V18H5.6414V2.64844H0.485153V0.726562H13.6336ZM14.6555 0.726562H17.5148V18H14.6555V0.726562ZM24.7336 10.2188H18.4758V8.29688H24.7336V10.2188ZM18.4758 15.8672H25.4602V18H18.4758V15.8672ZM25.4602 0.726562V2.85938H18.4758V0.726562H25.4602ZM36.6539 4.05469C36.2945 3.64844 35.9117 3.34375 35.5055 3.14062C35.0992 2.9375 34.6617 2.82031 34.193 2.78906V0.46875C35.943 0.546875 37.4117 1.16406 38.5992 2.32031L36.6539 4.05469ZM34.193 15.7969C34.6617 15.75 35.0992 15.625 35.5055 15.4219C35.9273 15.2188 36.3102 14.9219 36.6539 14.5312L38.5992 16.2422C38.0055 16.8203 37.3414 17.2656 36.607 17.5781C35.8727 17.8906 35.068 18.0703 34.193 18.1172V15.7969ZM26.5992 9.28125C26.5992 7.89062 26.7633 6.66406 27.0914 5.60156C27.4352 4.53906 27.9039 3.64062 28.4977 2.90625C29.0914 2.17188 29.7867 1.60156 30.5836 1.19531C31.3961 0.789062 32.2789 0.546875 33.232 0.46875V2.8125C32.7164 2.89062 32.232 3.07031 31.7789 3.35156C31.3258 3.61719 30.9273 4.00781 30.5836 4.52344C30.2398 5.03906 29.9664 5.69531 29.7633 6.49219C29.5758 7.27344 29.4742 8.20312 29.4586 9.28125C29.4742 10.375 29.5758 11.3125 29.7633 12.0938C29.9664 12.875 30.2398 13.5312 30.5836 14.0625C30.9273 14.5938 31.3258 15 31.7789 15.2812C32.2477 15.5625 32.732 15.7344 33.232 15.7969V18.0938C32.2789 18.0312 31.3961 17.7969 30.5836 17.3906C29.7867 16.9844 29.0914 16.4141 28.4977 15.6797C27.9039 14.9453 27.4352 14.0469 27.0914 12.9844C26.7633 11.9062 26.5992 10.6719 26.5992 9.28125ZM53.4258 0.726562V18H50.6133V10.2188H44.0977V8.29688H50.6133V0.726562H53.4258ZM40.2773 0.726562H43.1367V18H40.2773V0.726562ZM65.018 0.726562H67.8773V18H65.018L59.2055 7.78125V2.39062L65.018 12.6328V0.726562ZM55.3852 18V0.726562H58.2445V18H55.3852ZM72.6727 18H69.8133V0.726562H72.6727V18ZM74.6086 18V0.726562H77.468V18H74.6086ZM80.3039 9.60938L86.3039 18H83.0461L78.4289 11.2031V7.78125L82.6242 0.726562H85.8352L80.3039 9.60938Z" fill="#505478"/>
<path d="M97.6523 15.6328L100.934 0.726562H102.035V6.98438L99.4805 18.0938H95.8008L91.418 0.726562H94.6055L97.6523 15.6328ZM110.473 0.726562H113.66L108.996 18.0938H105.34L102.996 7.42969V0.726562H104.121L107.168 15.6328L110.473 0.726562ZM131.29 0.726562V2.64844H126.134V18H123.298V2.64844H118.141V0.726562H131.29ZM132.312 0.726562H135.171V18H132.312V0.726562ZM142.39 10.2188H136.132V8.29688H142.39V10.2188ZM136.132 15.8672H143.116V18H136.132V15.8672ZM143.116 0.726562V2.85938H136.132V0.726562H143.116ZM144.513 0.726562H147.326V18H144.513V0.726562ZM156.232 18H153.255L149.998 11.7422C149.951 11.7422 149.896 11.75 149.834 11.7656C149.787 11.7656 149.709 11.7656 149.599 11.7656C149.49 11.7656 149.326 11.7656 149.107 11.7656C148.904 11.7656 148.63 11.7656 148.287 11.7656V9.70312H149.88C150.224 9.70312 150.568 9.64844 150.912 9.53906C151.255 9.41406 151.568 9.21875 151.849 8.95312C152.13 8.6875 152.357 8.32031 152.529 7.85156C152.701 7.36719 152.787 6.77344 152.787 6.07031C152.787 5.78906 152.748 5.46875 152.67 5.10938C152.591 4.73438 152.427 4.38281 152.177 4.05469C151.943 3.71094 151.607 3.42969 151.17 3.21094C150.732 2.97656 150.154 2.85938 149.435 2.85938H148.287V0.726562H149.482C150.216 0.726562 150.943 0.84375 151.662 1.07812C152.38 1.3125 153.021 1.66406 153.584 2.13281C154.162 2.60156 154.623 3.17188 154.966 3.84375C155.326 4.5 155.505 5.24219 155.505 6.07031C155.505 7.32031 155.216 8.38281 154.638 9.25781C154.06 10.1328 153.279 10.7812 152.295 11.2031L156.232 18ZM157.699 0.726562H160.559V18H157.699V0.726562ZM167.777 10.2188H161.52V8.29688H167.777V10.2188ZM161.52 15.8672H168.504V18H161.52V15.8672ZM168.504 0.726562V2.85938H161.52V0.726562H168.504ZM179.58 0.726562H182.44V18H179.58L173.768 7.78125V2.39062L179.58 12.6328V0.726562ZM169.948 18V0.726562H172.807V18H169.948ZM187.235 18H184.376V0.726562H187.235V18ZM189.218 0.726562H192.077V18H189.218V0.726562ZM199.296 10.2188H193.038V8.29688H199.296V10.2188ZM193.038 15.8672H200.023V18H193.038V15.8672ZM200.023 0.726562V2.85938H193.038V0.726562H200.023Z" fill="#2CC590"/>
</svg>
