<svg xmlns="http://www.w3.org/2000/svg" width="24" height="24" viewBox="0 0 24 24" fill="none"><mask id="a" width="24" height="24" x="0" y="0" maskUnits="userSpaceOnUse" style="mask-type:alpha"><path fill="#fff" d="M12 24c6.627 0 12-5.373 12-12S18.627 0 12 0 0 5.373 0 12s5.373 12 12 12Z"/></mask><g mask="url(#a)"><path fill="#E9E9E9" d="M12 24c6.627 0 12-5.373 12-12S18.627 0 12 0 0 5.373 0 12s5.373 12 12 12Z"/><path fill="#D8D8D8" fill-rule="evenodd" d="m18.185 19.689-3.28-1.633a.9.9 0 0 1-.502-.809v-1.155c.08-.096.162-.205.247-.326a7.81 7.81 0 0 0 1.015-1.982c.484-.221.799-.698.799-1.237V11.18c0-.33-.124-.649-.344-.898V8.464c.02-.188.095-1.308-.718-2.231-.705-.801-1.85-1.207-3.402-1.207s-2.697.406-3.402 1.206c-.813.924-.738 2.044-.718 2.232v1.818a1.36 1.36 0 0 0-.344.898v1.367c0 .416.19.804.514 1.063a7.163 7.163 0 0 0 1.203 2.474v1.132c0 .33-.181.634-.473.793l-3.063 1.663a3.081 3.081 0 0 0-1.614 2.708v1.107c0 1.623 5.165 2.052 7.897 2.052s7.897-.43 7.897-2.052v-1.04a3.067 3.067 0 0 0-1.712-2.758Z" clip-rule="evenodd"/></g></svg>
