<svg xmlns="http://www.w3.org/2000/svg" width="24" height="24" viewBox="0 0 24 24"><path d="M6.667 12.667h2V14h-2v-1.333ZM10 14h2v-1.333h-2V14Zm-3.333 2.667h2v-1.334h-2v1.334Zm3.333 0h2v-1.334h-2v1.334Zm-3.333-8h2V7.333h-2v1.334Zm3.333 0h2V7.333h-2v1.334Zm-3.333 2.666h2V10h-2v1.333Zm3.333 0h2V10h-2v1.333Zm10-2V20H4V6a2 2 0 0 1 2-2h6.667a2 2 0 0 1 2 2v1.333H18a2 2 0 0 1 2 2ZM13.333 6a.667.667 0 0 0-.666-.667H6A.667.667 0 0 0 5.333 6v12.667h8V6Zm5.334 3.333A.667.667 0 0 0 18 8.667h-3.333v10h4V9.333ZM16 14h1.333v-1.333H16V14Zm0 2.667h1.333v-1.334H16v1.334Zm0-5.334h1.333V10H16v1.333Z"/></svg>
