<svg viewBox="0 0 24 24" xmlns="http://www.w3.org/2000/svg"><path d="M15.333 10.693a4.672 4.672 0 0 0-4.666 4.666c0 2.559 2.094 4.641 4.666 4.641A4.672 4.672 0 0 0 20 15.333c0-2.558-2.094-4.64-4.667-4.64Zm0 7.974c-1.838 0-3.333-1.484-3.333-3.308a3.337 3.337 0 0 1 3.333-3.333c1.838 0 3.334 1.484 3.334 3.307a3.337 3.337 0 0 1-3.334 3.334Zm1.138-3.138a.666.666 0 1 1-.942.942l-.667-.666a.666.666 0 0 1-.195-.472V14A.666.666 0 1 1 16 14v1.057l.471.472ZM20 8.667V10a.667.667 0 1 1-1.333 0V8.667c0-1.103-.898-2-2-2H7.333c-1.102 0-2 .897-2 2v.666h6a.667.667 0 0 1 0 1.334h-6v6c0 1.102.898 2 2 2H10A.667.667 0 0 1 10 20H7.333A3.337 3.337 0 0 1 4 16.667v-8a3.337 3.337 0 0 1 3.333-3.334H8v-.666a.667.667 0 0 1 1.333 0v.666h5.334v-.666a.666.666 0 1 1 1.333 0v.666h.667A3.337 3.337 0 0 1 20 8.667Z" /></svg>
