<svg viewBox="0 0 24 24"><path d="M18.211 3.142c-7.41 2.832-15.734 6-15.773 6-.079 0-.332.25-.383.379A.74.74 0 0 0 2 9.77c0 .152.14.406.27.492.066.043 1.695.355 4.859.934 2.617.476 4.766.874 4.777.882.02.024 1.696 9.22 1.696 9.317 0 .035.035.14.082.234.09.188.34.363.52.363.234 0 .527-.187.605-.383.023-.058 1-2.629 2.176-5.71 1.171-3.083 2.78-7.31 3.574-9.387C21.383 4.357 22 2.677 22 2.607c0-.168-.148-.414-.309-.524-.257-.176-.253-.176-3.48 1.059Zm1.957.87c-.063.169-1.348 3.54-2.856 7.493a4878.75 4878.75 0 0 0-2.785 7.312c-.023.07-.05.13-.062.13-.012 0-.328-1.684-.703-3.743-.371-2.055-.692-3.793-.715-3.863-.039-.14-.297-.39-.43-.422-.05-.008-1.75-.316-3.78-.684-2.032-.367-3.724-.68-3.759-.695-.039-.02 2.672-1.07 7.54-2.926 4.183-1.593 7.617-2.898 7.632-2.902.015 0-.02.137-.082.3Z" /></svg>
