<svg viewBox="0 0 24 24" xmlns="http://www.w3.org/2000/svg"><path d="M22.045 15.668a.912.912 0 0 0-.915.914v4.41H2.829v-4.41a.912.912 0 0 0-.914-.914.912.912 0 0 0-.914.914v5.324c0 .506.408.914.914.914h20.13a.912.912 0 0 0 .915-.914v-5.324a.912.912 0 0 0-.914-.914Z"/><path d="M11.307 16.752a.918.918 0 0 0 1.34 0l5.257-5.655a.915.915 0 0 0-1.34-1.246l-3.67 3.948V1.914A.912.912 0 0 0 11.979 1a.912.912 0 0 0-.914.914v11.89l-3.67-3.949A.919.919 0 0 0 6.1 9.806a.919.919 0 0 0-.05 1.295l5.257 5.651Z"/></svg>
