<svg viewBox="0 0 24 24" xmlns="http://www.w3.org/2000/svg"><path d="m20.409 9.365 2.985-2.985a.429.429 0 0 0 .125-.356.438.438 0 0 0-.209-.316l-8.052-4.652a.422.422 0 0 0-.511.07L11.76 4.112 8.776 1.128a.425.425 0 0 0-.514-.07L.212 5.71a.419.419 0 0 0-.208.317.426.426 0 0 0 .117.355l2.986 2.986-2.983 2.988a.416.416 0 0 0-.118.355c.014.13.091.247.209.312l3.072 1.776v3.869a.43.43 0 0 0 .211.37l8.052 4.653c.065.04.14.055.211.055a.415.415 0 0 0 .212-.055l8.05-4.654a.43.43 0 0 0 .21-.37V14.8l3.075-1.776a.419.419 0 0 0 .084-.667l-2.983-2.99Zm-1.45-.053-7.198 4.16-7.2-4.16 5.398-3.12 1.802-1.039 6.512 3.759.686.4Zm-3.842-7.408 7.286 4.214-2.664 2.664-.437-.252-6.852-3.96 2.667-2.666Zm-6.71 0 2.665 2.666-7.29 4.21-2.667-2.664 7.291-4.212ZM3.78 9.843l7.287 4.214-2.664 2.664L3.92 14.13h-.002l-2.803-1.62L3.78 9.843Zm.353 5.393 4.128 2.383a.4.4 0 0 0 .211.057c.01 0 .015-.01.024-.01a.399.399 0 0 0 .276-.112l2.563-2.563v7.54l-7.202-4.163v-3.132Zm15.25 3.132-7.2 4.161v-7.538l2.558 2.563a.418.418 0 0 0 .274.113c.01 0 .017.01.024.01a.39.39 0 0 0 .21-.058l4.129-2.383v3.132h.005Zm-4.27-1.65-2.664-2.663L19.74 9.84l2.664 2.667-7.289 4.212Z" /></svg>
