<svg xmlns="http://www.w3.org/2000/svg" viewBox="0 0 24 24"><path d="M14.992 2a1.002 1.002 0 0 0-1.001 1.15 1.05 1.05 0 0 0 1.05.85h3.555L13.34 9.25a1 1 0 0 0-.1 1.4.9.9 0 0 0 .75.35c.265-.004.517-.111.701-.3l5.307-5.3v3.55a1.05 1.05 0 0 0 .85 1.05A1.002 1.002 0 0 0 22 9V3a1 1 0 0 0-1.001-1h-6.007ZM10.85 13.42a1 1 0 0 0-1.55-.1L4 18.609v-3.542a1.046 1.046 0 0 0-.85-1.047 1.001 1.001 0 0 0-1.15.998v5.985A.996.996 0 0 0 3 22h5.95a1.052 1.052 0 0 0 1.05-.848.995.995 0 0 0-.58-1.06 1.003 1.003 0 0 0-.42-.087H5.4l5.3-5.238a1.146 1.146 0 0 0 .15-1.347Z"/></svg>
