<svg viewBox="0 0 24 24" xmlns="http://www.w3.org/2000/svg"><path d="M4.667 7.167H6.49a2.485 2.485 0 0 0 4.796 0h8.046a.667.667 0 1 0 0-1.333h-8.046a2.485 2.485 0 0 0-4.796 0H4.667a.667.667 0 1 0 0 1.333Zm4.222-1.833a1.167 1.167 0 1 1 0 2.333 1.167 1.167 0 0 1 0-2.333ZM19.333 11.334H17.51a2.484 2.484 0 0 0-4.796 0H4.667a.667.667 0 1 0 0 1.334h8.046a2.485 2.485 0 0 0 4.796 0h1.824a.666.666 0 1 0 0-1.334Zm-4.222 1.834a1.166 1.166 0 1 1 0-2.333 1.166 1.166 0 0 1 0 2.332ZM19.333 16.834h-8.046a2.485 2.485 0 0 0-4.796 0H4.667a.666.666 0 1 0 0 1.333H6.49a2.486 2.486 0 0 0 4.796 0h8.046a.667.667 0 1 0 0-1.334ZM8.89 18.666a1.167 1.167 0 1 1 0-2.333 1.167 1.167 0 0 1 0 2.333Z" /></svg>
