<svg xmlns="http://www.w3.org/2000/svg" viewBox="0 0 24 24"><path d="M12.098 9a3 3 0 1 0 0 6 3 3 0 0 0 0-6Zm0 4.5a1.5 1.5 0 1 1 0-3 1.5 1.5 0 0 1 0 3Z"/><path d="m19.068 13.425-.333-.192c.15-.816.15-1.652 0-2.468l.333-.192a2.25 2.25 0 1 0-2.25-3.9l-.334.193a6.734 6.734 0 0 0-2.137-1.231V5.25a2.25 2.25 0 1 0-4.5 0v.385a6.733 6.733 0 0 0-2.135 1.234l-.336-.194a2.251 2.251 0 0 0-2.25 3.9l.333.192a6.825 6.825 0 0 0 0 2.468l-.333.192a2.251 2.251 0 0 0 2.25 3.9l.334-.193a6.73 6.73 0 0 0 2.138 1.231v.385a2.25 2.25 0 0 0 4.5 0v-.385a6.731 6.731 0 0 0 2.135-1.234l.336.193a2.251 2.251 0 0 0 2.25-3.9l-.001.001Zm-1.911-2.832c.254.92.254 1.892 0 2.813a.75.75 0 0 0 .348.85l.813.469a.75.75 0 1 1-.75 1.3l-.815-.471a.75.75 0 0 0-.91.123 5.238 5.238 0 0 1-2.433 1.407.75.75 0 0 0-.563.726v.94a.75.75 0 0 1-1.5 0v-.939a.75.75 0 0 0-.563-.727 5.237 5.237 0 0 1-2.432-1.409.75.75 0 0 0-.911-.124l-.813.47a.75.75 0 1 1-.75-1.299l.813-.469a.75.75 0 0 0 .348-.85 5.286 5.286 0 0 1 0-2.812.75.75 0 0 0-.349-.847l-.813-.47a.75.75 0 0 1 .75-1.3l.815.472a.75.75 0 0 0 .91-.121 5.238 5.238 0 0 1 2.432-1.406.75.75 0 0 0 .563-.73V5.25a.75.75 0 1 1 1.5 0v.939a.75.75 0 0 0 .564.727c.924.24 1.765.726 2.432 1.409a.75.75 0 0 0 .911.124l.813-.47a.75.75 0 1 1 .75 1.298l-.813.47a.75.75 0 0 0-.347.847v-.001Z"/></svg>
