<svg xmlns="http://www.w3.org/2000/svg" viewBox="0 0 24 24"><path d="M21.75 11.25h-.782a9.013 9.013 0 0 0-8.218-8.218V2.25a.75.75 0 1 0-1.5 0v.782a9.013 9.013 0 0 0-8.218 8.218H2.25a.75.75 0 1 0 0 1.5h.782a9.013 9.013 0 0 0 8.218 8.218v.782a.75.75 0 1 0 1.5 0v-.782a9.013 9.013 0 0 0 8.218-8.218h.782a.75.75 0 1 0 0-1.5Zm-9 8.212v-.712a.75.75 0 1 0-1.5 0v.712a7.514 7.514 0 0 1-6.713-6.712h.713a.75.75 0 1 0 0-1.5h-.713a7.514 7.514 0 0 1 6.713-6.713v.713a.75.75 0 1 0 1.5 0v-.713a7.514 7.514 0 0 1 6.712 6.713h-.712a.75.75 0 1 0 0 1.5h.712a7.514 7.514 0 0 1-6.712 6.712ZM12 8.25a3.75 3.75 0 1 0 0 7.5 3.75 3.75 0 0 0 0-7.5Zm0 6a2.25 2.25 0 1 1 0-4.5 2.25 2.25 0 0 1 0 4.5Z"/></svg>
