<svg viewBox="0 0 24 24"><path d="M5.925 5h12.15c1.56 0 2.834 1.22 2.92 2.759l.005.166v8.55c0 1.56-1.22 2.834-2.759 2.92l-.166.005H5.925a2.925 2.925 0 0 1-2.92-2.759L3 16.475v-8.55c0-1.56 1.22-2.834 2.759-2.92L5.925 5h12.15-12.15ZM19.65 9.836l-7.336 3.861a.675.675 0 0 1-.542.038l-.086-.038-7.336-3.86v6.638c0 .826.636 1.504 1.446 1.57l.129.005h12.15c.826 0 1.504-.636 1.57-1.446l.005-.129v-6.64ZM18.075 6.35H5.925c-.826 0-1.504.636-1.57 1.446l-.005.129v.386L12 12.337l7.65-4.027v-.385c0-.826-.636-1.504-1.446-1.57l-.129-.005Z" /></svg>
