<svg viewBox="0 0 24 24" xmlns="http://www.w3.org/2000/svg"><path d="M12 12a2.667 2.667 0 1 0 0-5.333A2.667 2.667 0 0 0 12 12Zm0-4a1.334 1.334 0 1 1 0 2.667A1.334 1.334 0 0 1 12 8Zm5.773 2.105-.479-.16A5.333 5.333 0 0 0 12 4a5.328 5.328 0 0 0-5.276 6.061 3.364 3.364 0 0 0-1.699.867A3.296 3.296 0 0 0 4 13.333v2.717a3.342 3.342 0 0 0 2.4 3.2l1.913.6a3.385 3.385 0 0 0 1.896.026l3.854-1.14a1.991 1.991 0 0 1 1.048 0l1.592.533A2.667 2.667 0 0 0 20 16.681v-3.433a3.344 3.344 0 0 0-2.227-3.144ZM9.172 6.508a3.991 3.991 0 0 1 5.656 0 4.025 4.025 0 0 1 .007 5.667l-2.368 2.303a.661.661 0 0 1-.926 0l-2.369-2.293a4.026 4.026 0 0 1 0-5.677Zm9.495 10.173a1.328 1.328 0 0 1-.51 1.048 1.312 1.312 0 0 1-1.084.263l-1.563-.525a3.349 3.349 0 0 0-1.811-.011l-3.856 1.139a2 2 0 0 1-1.13-.02l-1.929-.6a2.008 2.008 0 0 1-1.45-1.925v-2.717a1.976 1.976 0 0 1 .613-1.442c.305-.29.694-.479 1.112-.537a5.348 5.348 0 0 0 1.177 1.78l2.378 2.301a1.989 1.989 0 0 0 2.783 0l2.375-2.308a5.307 5.307 0 0 0 1.209-1.881l.358.119a2.005 2.005 0 0 1 1.328 1.883v3.433Z" /></svg>
