<svg viewBox="0 0 24 24" xmlns="http://www.w3.org/2000/svg"><path d="m3.135 7.808 4.673-4.673a.458.458 0 0 1 .651 0L20.865 15.54a.461.461 0 0 1 0 .65l-.001.002.001.002-4.673 4.673a.46.46 0 0 1-.653 0L3.135 8.459a.46.46 0 0 1 0-.651ZM18.428 14.3l-2.121 2.121c-.166.166-.416.185-.558.043-.143-.142-.123-.393.042-.558l2.121-2.121-1.71-1.713-1.006 1.004c-.165.165-.416.184-.558.042-.142-.142-.123-.392.043-.558l1.005-1.005-1.57-1.567-2.122 2.12c-.165.166-.416.185-.558.043-.142-.142-.123-.392.043-.558l2.12-2.12-1.65-1.653-1.005 1.003c-.166.166-.416.185-.558.043-.142-.142-.123-.393.042-.558l1.005-1.005-1.632-1.63-2.12 2.122c-.166.165-.415.183-.557.042-.143-.142-.124-.39.042-.556L9.287 5.16 8.134 4.008 4.006 8.134l11.86 11.86 4.126-4.127-1.564-1.566Z" /></svg>
