<svg viewBox="0 0 24 24" xmlns="http://www.w3.org/2000/svg"><path d="m7.514 3.42 1.045-.315a2.463 2.463 0 0 1 2.958 1.349l.808 1.796a2.463 2.463 0 0 1-.567 2.812L10.42 10.31a.224.224 0 0 0-.07.139c-.04.355.201 1.048.757 2.01.404.7.77 1.19 1.08 1.467.217.192.337.234.388.219l1.8-.55c1.008-.31 2.101.058 2.718.913l1.147 1.59c.722 1 .592 2.382-.304 3.23l-.794.752a3.359 3.359 0 0 1-3.212.796c-2.467-.688-4.679-2.77-6.66-6.202-1.984-3.436-2.68-6.396-2.038-8.878A3.359 3.359 0 0 1 7.514 3.42Zm.388 1.287a2.015 2.015 0 0 0-1.37 1.425c-.54 2.088.078 4.712 1.901 7.87 1.822 3.155 3.783 5 5.858 5.58.682.19 1.413.01 1.927-.478l.794-.752a1.12 1.12 0 0 0 .139-1.468l-1.148-1.59a1.12 1.12 0 0 0-1.235-.415l-1.805.552c-1.048.312-1.999-.531-3.02-2.3-.688-1.192-1.009-2.113-.929-2.832.042-.372.215-.717.49-.972l1.338-1.248c.35-.327.454-.84.257-1.278l-.808-1.796a1.12 1.12 0 0 0-1.344-.613l-1.045.315Z" /></svg>
