<svg viewBox="0 0 24 24" xmlns="http://www.w3.org/2000/svg"><path opacity=".083" d="M13.28 5.92c0-1.06-.43-1.92-.96-1.92s-.96.86-.96 1.92.43 1.92.96 1.92.96-.86.96-1.92Z"/><path opacity=".167" d="M16.351 7.257c.53-.918.588-1.877.129-2.142-.46-.265-1.261.264-1.791 1.182-.53.919-.588 1.878-.129 2.143.46.265 1.261-.264 1.791-1.183Z"/><path opacity=".25" d="M18.343 9.951c.918-.53 1.447-1.332 1.182-1.791-.265-.46-1.224-.402-2.142.129-.919.53-1.448 1.332-1.183 1.791.265.46 1.224.402 2.143-.129Z"/><path opacity=".333" d="M18.72 13.28c1.06 0 1.92-.43 1.92-.96s-.86-.96-1.92-.96-1.92.43-1.92.96.86.96 1.92.96Z"/><path opacity=".417" d="M17.383 16.351c.918.53 1.877.588 2.142.129.265-.46-.264-1.261-1.182-1.791-.919-.53-1.878-.588-2.143-.129-.265.46.264 1.261 1.183 1.791Z"/><path opacity=".5" d="M14.689 18.343c.53.918 1.332 1.447 1.791 1.182.46-.265.402-1.224-.129-2.142-.53-.919-1.332-1.448-1.791-1.183-.46.265-.402 1.224.129 2.143Z"/><path opacity=".583" d="M11.36 18.72c0 1.06.43 1.92.96 1.92s.96-.86.96-1.92-.43-1.92-.96-1.92-.96.86-.96 1.92Z"/><path opacity=".667" d="M8.289 17.383c-.53.918-.588 1.877-.129 2.142.46.265 1.261-.264 1.791-1.182.53-.919.588-1.878.129-2.143-.46-.265-1.261.264-1.791 1.183Z"/><path opacity=".75" d="M6.297 14.689c-.918.53-1.447 1.332-1.182 1.791.265.46 1.224.402 2.142-.129.919-.53 1.448-1.332 1.183-1.791-.265-.46-1.224-.402-2.143.129Z"/><path opacity=".833" d="M5.92 11.36c-1.06 0-1.92.43-1.92.96s.86.96 1.92.96 1.92-.43 1.92-.96-.86-.96-1.92-.96Z"/><path opacity=".917" d="M7.257 8.289C6.34 7.759 5.38 7.7 5.115 8.16c-.265.46.264 1.261 1.182 1.791.919.53 1.878.588 2.143.129.265-.46-.264-1.261-1.183-1.791Z"/><path d="M9.951 6.297C9.421 5.38 8.62 4.85 8.16 5.115c-.46.265-.402 1.224.129 2.142.53.919 1.332 1.448 1.791 1.183.46-.265.402-1.224-.129-2.143Z"/></svg>
