<svg viewBox="0 0 24 24"><path d="M2 2.75a.75.75 0 0 1 1.5 0v18a.75.75 0 0 1-1.5 0v-18Zm5.625.75A2.625 2.625 0 0 0 5 6.125v2.25A2.625 2.625 0 0 0 7.625 11h11.25A2.625 2.625 0 0 0 21.5 8.375v-2.25A2.625 2.625 0 0 0 18.875 3.5H7.625ZM6.5 6.125C6.5 5.504 7.004 5 7.625 5h11.25C19.496 5 20 5.504 20 6.125v2.25c0 .621-.504 1.125-1.125 1.125H7.625A1.125 1.125 0 0 1 6.5 8.375v-2.25ZM7.625 12.5A2.625 2.625 0 0 0 5 15.125v2.25A2.625 2.625 0 0 0 7.625 20h6.75A2.625 2.625 0 0 0 17 17.375v-2.25a2.625 2.625 0 0 0-2.625-2.625h-6.75ZM6.5 15.125c0-.621.504-1.125 1.125-1.125h6.75c.621 0 1.125.504 1.125 1.125v2.25c0 .621-.504 1.125-1.125 1.125h-6.75A1.125 1.125 0 0 1 6.5 17.375v-2.25Z" /></svg>
