<svg viewBox="0 0 24 24" xmlns="http://www.w3.org/2000/svg"><path d="M17.25 4.5H6.75A3.754 3.754 0 0 0 3 8.25v7.5a3.754 3.754 0 0 0 3.75 3.75h10.5A3.754 3.754 0 0 0 21 15.75v-7.5a3.754 3.754 0 0 0-3.75-3.75ZM6.75 6h10.5c1.24 0 2.25 1.01 2.25 2.25h-15C4.5 7.01 5.51 6 6.75 6Zm10.5 12H6.75c-1.24 0-2.25-1.01-2.25-2.25v-6h2.25V15c0 .827.673 1.5 1.5 1.5h3a.75.75 0 1 0 0-1.5h-3v-1.5h1.5a.75.75 0 1 0 0-1.5h-1.5V9.75H19.5v6c0 1.24-1.01 2.25-2.25 2.25Zm-.75-2.25a.75.75 0 0 1-.75.75h-1.5a.75.75 0 1 1 0-1.5h1.5a.75.75 0 0 1 .75.75Zm-2.25-2.25h-1.5a.75.75 0 1 1 0-1.5h1.5a.75.75 0 1 1 0 1.5Z" /></svg>
