<svg viewBox="0 0 24 24" xmlns="http://www.w3.org/2000/svg"><path d="M10.874 4c-.572 0-1.043.471-1.043 1.043v.696H7.102a.348.348 0 0 0-.11 0h-.64a.348.348 0 1 0 0 .696h.349v12.521C6.7 19.53 7.17 20 7.744 20h9.044c.572 0 1.043-.471 1.043-1.044V6.435h.348a.348.348 0 1 0 0-.696h-.637a.347.347 0 0 0-.114 0h-2.727v-.696C14.7 4.471 14.229 4 13.657 4h-2.783Zm0 .696h2.783c.193 0 .348.155.348.347v.696h-3.478v-.696c0-.192.155-.347.348-.347ZM7.396 6.435h2.724a.348.348 0 0 0 .114 0h4.06a.347.347 0 0 0 .114 0h2.727v12.521a.347.347 0 0 1-.347.348H7.744a.347.347 0 0 1-.348-.348V6.435Zm2.777 1.734a.348.348 0 0 0-.342.353v8.695a.348.348 0 1 0 .696 0V8.522a.35.35 0 0 0-.354-.353Zm2.087 0a.348.348 0 0 0-.342.353v8.695a.348.348 0 1 0 .696 0V8.522a.346.346 0 0 0-.218-.328.348.348 0 0 0-.136-.025Zm2.087 0a.348.348 0 0 0-.342.353v8.695a.347.347 0 0 0 .482.326.347.347 0 0 0 .214-.326V8.522a.35.35 0 0 0-.354-.353Z"/></svg>
