<svg viewBox="0 0 24 24" xmlns="http://www.w3.org/2000/svg"><path d="M3.75 3C2.51 3 1.5 4.01 1.5 5.25v13.5C1.5 19.99 2.51 21 3.75 21h6.158a8.224 8.224 0 0 1-.589-1.5H3.75a.75.75 0 0 1-.75-.75v-1.392l5.335-6.008 1.74 1.834c.254-.446.548-.866.876-1.254L8.3 9.135 3 15.1V5.25a.75.75 0 0 1 .75-.75h16.5a.75.75 0 0 1 .75.75v4.658a8.265 8.265 0 0 1 1.5.979V5.25C22.5 4.01 21.49 3 20.25 3H3.75ZM16.5 6a1.5 1.5 0 1 0 0 3 1.5 1.5 0 0 0 0-3Zm.75 4.5c-3.719 0-6.75 3.031-6.75 6.75S13.531 24 17.25 24 24 20.969 24 17.25s-3.031-6.75-6.75-6.75Zm0 1.5a5.239 5.239 0 0 1 5.25 5.25 5.239 5.239 0 0 1-5.25 5.25A5.239 5.239 0 0 1 12 17.25 5.239 5.239 0 0 1 17.25 12Zm-.75 1.5v3h-3V18h3v3H18v-3h3v-1.5h-3v-3h-1.5Z"/></svg>
