<svg xmlns="http://www.w3.org/2000/svg" width="24" height="24" viewBox="0 0 24 24"><path d="M14.54 8c0-2.206-1.793-4-4-4-2.205 0-4 1.794-4 4s1.795 4 4 4c2.207 0 4-1.794 4-4Zm-4 2.667A2.67 2.67 0 0 1 7.875 8a2.67 2.67 0 0 1 2.667-2.667A2.67 2.67 0 0 1 13.207 8a2.67 2.67 0 0 1-2.666 2.667Zm-.005 3.292a.667.667 0 0 1-.579.744 4.67 4.67 0 0 0-4.083 4.63.667.667 0 0 1-1.333 0c0-3.02 2.257-5.58 5.25-5.953a.669.669 0 0 1 .745.58v-.001Zm9.136 2.796-.649-.374c.11-.332.185-.68.185-1.048 0-.369-.074-.717-.185-1.048l.65-.375a.667.667 0 0 0-.667-1.155l-.649.375a3.315 3.315 0 0 0-1.815-1.063v-.734a.667.667 0 0 0-1.334 0v.734a3.322 3.322 0 0 0-1.815 1.063l-.649-.375a.665.665 0 1 0-.666 1.155l.649.375a3.29 3.29 0 0 0-.185 1.048c0 .368.074.716.185 1.048l-.65.374a.667.667 0 0 0 .667 1.155l.649-.375c.47.53 1.096.917 1.815 1.063v.734a.667.667 0 0 0 1.334 0v-.734a3.322 3.322 0 0 0 1.815-1.063l.649.375a.664.664 0 0 0 .91-.244.667.667 0 0 0-.244-.91Zm-3.797.578c-1.103 0-2-.898-2-2 0-1.103.897-2 2-2s2 .897 2 2c0 1.102-.897 2-2 2Z"/></svg>
