<svg viewBox="0 0 24 24"><path d="M17.378 13.798c1.118 0 2.024.906 2.024 2.024v.518c0 .805-.288 1.584-.811 2.195C17.178 20.185 15.029 21 12.198 21c-2.832 0-4.98-.815-6.39-2.466A3.375 3.375 0 0 1 5 16.342v-.52c0-1.118.906-2.024 2.024-2.024h10.354Zm0 1.35H7.024a.674.674 0 0 0-.674.674v.52c0 .482.172.949.485 1.315 1.129 1.321 2.898 1.993 5.363 1.993 2.465 0 4.236-.672 5.367-1.993.314-.367.487-.834.487-1.317v-.518a.674.674 0 0 0-.674-.674ZM12.198 3a4.5 4.5 0 1 1 0 9.002 4.5 4.5 0 0 1 0-9.002Zm0 1.35a3.15 3.15 0 1 0 0 6.301 3.15 3.15 0 0 0 0-6.3Z" /></svg>
