<svg xmlns="http://www.w3.org/2000/svg" viewBox="0 0 24 24"><path d="M12 14.667a2.667 2.667 0 1 1 0-5.334 2.667 2.667 0 0 1 0 5.334Zm0-4a1.334 1.334 0 1 0 0 2.667 1.334 1.334 0 0 0 0-2.667Zm4 8.666a4 4 0 0 0-8 0 .667.667 0 1 0 1.333 0 2.667 2.667 0 0 1 5.334 0 .667.667 0 1 0 1.333 0Zm0-10A2.667 2.667 0 1 1 16 4a2.667 2.667 0 0 1 0 5.333Zm0-4A1.334 1.334 0 1 0 16 8a1.334 1.334 0 0 0 0-2.667ZM20 14a4.005 4.005 0 0 0-4-4 .666.666 0 1 0 0 1.333A2.667 2.667 0 0 1 18.667 14 .667.667 0 1 0 20 14ZM8 9.333A2.667 2.667 0 1 1 8 4a2.667 2.667 0 0 1 0 5.333Zm0-4A1.333 1.333 0 1 0 8 8a1.333 1.333 0 0 0 0-2.667ZM5.333 14A2.667 2.667 0 0 1 8 11.333.667.667 0 1 0 8 10a4.004 4.004 0 0 0-4 4 .667.667 0 1 0 1.333 0Z"/></svg>
